<svg width="650" height="246" viewBox="0 0 650 246" fill="none" xmlns="http://www.w3.org/2000/svg">
<g clip-path="url(#clip0_5_373)">
<path d="M283.039 50.2096H366.949L324.993 122.534L283.039 50.2096Z" fill="#1887DB"/>
<path d="M391.207 114.404L324.993 122.534L366.949 50.2096L391.207 114.404Z" fill="#5EA8E7"/>
<path d="M391.2 33.936L391.207 114.404L366.949 50.2096L391.2 33.936Z" fill="#91C4EF"/>
<path d="M258.793 33.936L258.788 114.409L283.046 50.2096L258.793 33.936Z" fill="#0277CE"/>
<path d="M258.784 114.409L324.997 122.534L283.043 50.2096L258.784 114.409Z" fill="#0277CE"/>
<path d="M366.949 50.2096H283.039L324.993 1.9902L366.949 50.2096Z" fill="#5EA8E7"/>
<path d="M258.788 114.409L324.993 122.534V148.862L258.788 114.409Z" fill="#0277CE"/>
<path d="M391.207 114.404L324.995 122.534V148.862L391.207 114.404Z" fill="#1887DB"/>
<path d="M391.2 33.936L366.949 50.2096L324.993 1.9902L391.2 33.936Z" fill="#C7E1F7"/>
<path d="M258.788 33.936L283.039 50.2096L324.993 1.9902L258.788 33.936Z" fill="#0277CE"/>
<path d="M393.234 114.539C393.234 114.515 393.234 114.491 393.234 114.469C393.234 114.446 393.246 114.426 393.246 114.404L393.239 33.936C393.239 33.9104 393.229 33.8865 393.229 33.8609C393.229 33.837 393.234 33.8165 393.233 33.7925C393.227 33.7225 393.204 33.6576 393.192 33.591C393.176 33.5021 393.164 33.4133 393.137 33.3262C393.108 33.2356 393.067 33.1553 393.026 33.0699C392.99 32.993 392.958 32.9145 392.912 32.8427C392.861 32.7624 392.798 32.6941 392.736 32.6206C392.682 32.5557 392.632 32.4891 392.569 32.431C392.498 32.3661 392.414 32.3148 392.332 32.2585C392.274 32.2192 392.225 32.1679 392.162 32.1355C392.15 32.1286 392.135 32.1269 392.123 32.1201C392.109 32.1133 392.099 32.103 392.087 32.0962L325.876 0.150331C325.812 0.119581 325.742 0.117872 325.675 0.0939556C325.559 0.0529556 325.447 0.0153722 325.327 -0.00512779C325.217 -0.0239195 325.109 -0.0273361 325 -0.0273361C324.884 -0.0273361 324.772 -0.0239195 324.656 -0.00341945C324.538 0.0170805 324.429 0.0529555 324.318 0.0922472C324.25 0.116164 324.178 0.117872 324.113 0.150331L257.906 32.0979C257.889 32.1064 257.877 32.1184 257.862 32.1269C257.853 32.1303 257.845 32.132 257.836 32.1355C257.795 32.1577 257.766 32.1901 257.727 32.214C257.615 32.2841 257.507 32.3541 257.412 32.443C257.376 32.4754 257.35 32.5147 257.316 32.5506C257.224 32.648 257.139 32.7487 257.067 32.8615C257.044 32.8991 257.028 32.9418 257.008 32.9811C256.945 33.1007 256.887 33.2202 256.849 33.3518C256.836 33.3996 256.83 33.4475 256.82 33.4953C256.798 33.5927 256.767 33.6883 256.761 33.7891C256.759 33.8233 256.767 33.8557 256.767 33.8882C256.767 33.9036 256.761 33.9173 256.761 33.9326L256.754 114.405C256.754 114.421 256.762 114.436 256.762 114.451C256.762 114.455 256.762 114.458 256.762 114.462C256.766 114.585 256.8 114.701 256.825 114.82C256.844 114.911 256.842 115.005 256.873 115.092C256.88 115.113 256.892 115.13 256.899 115.148C256.899 115.148 256.899 115.15 256.899 115.152C256.911 115.183 256.926 115.212 256.94 115.242C256.97 115.316 256.998 115.391 257.038 115.459C257.081 115.529 257.136 115.586 257.185 115.651C257.209 115.681 257.229 115.712 257.255 115.741C257.321 115.818 257.41 115.875 257.49 115.941C257.569 116.009 257.639 116.09 257.727 116.143C257.749 116.156 257.775 116.167 257.799 116.179C257.816 116.189 257.828 116.206 257.847 116.215L324.054 150.668C324.141 150.713 324.234 150.738 324.327 150.771C324.378 150.789 324.427 150.813 324.48 150.829C324.649 150.873 324.821 150.899 324.993 150.899C325.165 150.899 325.338 150.873 325.506 150.829C325.561 150.815 325.61 150.789 325.661 150.771C325.752 150.738 325.844 150.714 325.931 150.67L392.143 116.211C392.16 116.203 392.172 116.189 392.187 116.177C392.305 116.112 392.399 116.021 392.499 115.936C392.561 115.885 392.634 115.849 392.689 115.791C392.702 115.777 392.713 115.76 392.725 115.745C392.759 115.707 392.786 115.666 392.817 115.627C392.863 115.572 392.91 115.517 392.948 115.456C392.985 115.395 393.008 115.326 393.037 115.261C393.05 115.232 393.062 115.205 393.076 115.178C393.123 115.063 393.142 114.942 393.168 114.819C393.188 114.725 393.226 114.634 393.231 114.539H393.234ZM324.995 118.471L286.58 52.2511H363.409L324.995 118.471ZM261.609 112.7L283.433 54.9451L321.177 120.01L274.49 114.282L261.609 112.7ZM366.558 54.94L388.385 112.695L328.814 120.01L366.56 54.9417L366.558 54.94ZM389.171 103.253L369.424 51.004L372.011 49.2683L389.165 37.7576L389.171 103.253ZM387.11 34.2265L373.76 43.185L367.304 47.5173L333.044 8.14021L387.11 34.2265ZM324.993 5.09425L339.01 21.2038L362.472 48.1716H287.513L308.423 24.1387L324.993 5.09425ZM316.942 8.1385L282.684 47.5139L262.88 34.2248L316.941 8.14021L316.942 8.1385ZM260.829 37.761L280.564 51.004L260.823 103.247L260.829 37.761ZM322.957 145.504L269.735 117.807L270.801 117.938L322.957 124.339V145.504ZM327.032 145.504V124.338L380.26 117.803L327.032 145.504Z" fill="#113B6B"/>
<path d="M19.249 213.021V200.659H6.78062V213.021H0.0187378V182.226H6.78062V194.412H19.249V182.226H26.0109V213.021H19.249Z" fill="white"/>
<path d="M48.4022 213.504C40.1484 213.504 35.0983 208.885 35.0983 199.822V182.226H41.8602V199.648C41.8602 204.662 44.3631 207.258 48.4908 207.258C52.6185 207.258 55.1214 204.751 55.1214 199.868V182.228H61.8833V199.605C61.8833 208.931 56.6576 213.506 48.4039 213.506L48.4022 213.504Z" fill="white"/>
<path d="M94.9852 213.021V192.917L86.3359 206.071H86.1603L77.598 193.049V213.021H70.9691V182.226H78.2561L86.3359 195.249L94.414 182.226H101.703V213.021H94.9852Z" fill="white"/>
<path d="M134.146 213.021L131.337 206.114H118.341L115.532 213.021H108.638L121.811 182.008H128.044L141.217 213.021H134.146ZM124.839 190.144L120.756 200.131H128.924L124.839 190.144Z" fill="white"/>
<path d="M169.71 213.021L154.826 193.443V213.021H148.153V182.226H154.386L168.788 201.187V182.226H175.461V213.021H169.71Z" fill="white"/>
<path d="M216.159 213.239H210.189L197.764 182.226H205.228L213.262 203.914L221.297 182.226H228.586L216.159 213.239Z" fill="white"/>
<path d="M235.607 213.021V182.226H242.369V213.021H235.607Z" fill="white"/>
<path d="M270.908 213.021L264.324 203.167H259.011V213.021H252.249V182.226H266.298C273.542 182.226 277.89 186.055 277.89 192.387V192.476C277.89 197.447 275.212 200.57 271.306 202.022L278.813 213.021H270.908ZM271.04 192.741C271.04 189.837 269.019 188.342 265.727 188.342H259.009V197.184H265.858C269.152 197.184 271.04 195.425 271.04 192.83V192.741Z" fill="white"/>
<path d="M301.113 213.549C291.63 213.549 284.824 206.466 284.824 197.711V197.622C284.824 188.868 291.717 181.697 301.2 181.697C310.683 181.697 317.49 188.779 317.49 197.535V197.623C317.49 206.377 310.596 213.549 301.113 213.549ZM310.421 197.623C310.421 192.345 306.557 187.946 301.113 187.946C295.669 187.946 291.895 192.258 291.895 197.536V197.625C291.895 202.904 295.758 207.303 301.202 207.303C306.646 207.303 310.421 202.991 310.421 197.712V197.623Z" fill="white"/>
<path d="M348.839 213.021V192.917L340.19 206.071H340.014L331.452 193.049V213.021H324.823V182.226H332.11L340.19 195.249L348.268 182.226H355.556V213.021H348.839Z" fill="white"/>
<path d="M364.248 213.021V182.226H387.431V188.253H370.966V194.501H385.455V200.528H370.966V206.995H387.649V213.022H364.247L364.248 213.021Z" fill="white"/>
<path d="M422.244 203.784H417.107V213.021H410.345V182.226H422.902C430.234 182.226 434.67 186.581 434.67 192.871V192.96C434.67 200.087 429.137 203.784 422.244 203.784ZM427.821 193.004C427.821 189.968 425.712 188.34 422.333 188.34H417.107V197.755H422.464C425.845 197.755 427.821 195.732 427.821 193.093V193.004Z" fill="white"/>
<path d="M460.529 213.021L453.945 203.167H448.632V213.021H441.87V182.226H455.919C463.163 182.226 467.511 186.055 467.511 192.387V192.476C467.511 197.447 464.833 200.57 460.926 202.022L468.433 213.021H460.529ZM460.662 192.741C460.662 189.837 458.642 188.342 455.35 188.342H448.632V197.184H455.481C458.775 197.184 460.662 195.425 460.662 192.83V192.741Z" fill="white"/>
<path d="M489.858 213.549C480.375 213.549 473.569 206.466 473.569 197.711V197.622C473.569 188.868 480.462 181.697 489.945 181.697C499.428 181.697 506.234 188.779 506.234 197.535V197.623C506.234 206.377 499.341 213.549 489.858 213.549ZM499.165 197.623C499.165 192.345 495.302 187.946 489.858 187.946C484.414 187.946 480.639 192.258 480.639 197.536V197.625C480.639 202.904 484.503 207.303 489.947 207.303C495.391 207.303 499.165 202.991 499.165 197.712V197.623Z" fill="white"/>
<path d="M528.363 213.549C518.789 213.549 512.205 206.818 512.205 197.711V197.622C512.205 188.868 519.011 181.697 528.318 181.697C533.851 181.697 537.188 183.193 540.393 185.92L536.136 191.067C533.764 189.087 531.657 187.944 528.1 187.944C523.181 187.944 519.275 192.299 519.275 197.535V197.623C519.275 203.254 523.139 207.39 528.583 207.39C531.041 207.39 533.237 206.773 534.949 205.542V201.143H528.143V195.292H541.491V208.666C538.33 211.348 533.984 213.549 528.363 213.549Z" fill="white"/>
<path d="M567.964 213.021L561.379 203.167H556.067V213.021H549.305V182.226H563.354C570.598 182.226 574.944 186.055 574.944 192.387V192.476C574.944 197.447 572.267 200.57 568.36 202.022L575.867 213.021H567.964ZM568.095 192.741C568.095 189.837 566.077 188.342 562.784 188.342H556.067V197.184H562.916C566.208 197.184 568.095 195.425 568.095 192.83V192.741Z" fill="white"/>
<path d="M606.116 213.021L603.306 206.114H590.311L587.501 213.021H580.608L593.78 182.008H600.014L613.186 213.021H606.118H606.116ZM596.808 190.144L592.725 200.131H600.894L596.81 190.144H596.808Z" fill="white"/>
<path d="M643.26 213.021V192.917L634.609 206.071H634.434L625.873 193.049V213.021H619.242V182.226H626.531L634.609 195.249L642.687 182.226H649.976V213.021H643.26Z" fill="white"/>
<path d="M128.46 236.181V236.126C128.46 230.741 132.479 226.279 138.071 226.279C141.519 226.279 143.582 227.502 145.481 229.298L144.015 230.874C142.414 229.351 140.622 228.264 138.044 228.264C133.836 228.264 130.687 231.691 130.687 236.071V236.124C130.687 240.532 133.863 243.986 138.044 243.986C140.649 243.986 142.359 242.98 144.178 241.239L145.59 242.626C143.609 244.638 141.437 245.971 137.989 245.971C132.505 245.971 128.46 241.645 128.46 236.177V236.181Z" fill="white"/>
<path d="M150.657 236.181V236.126C150.657 230.876 154.594 226.279 160.377 226.279C166.161 226.279 170.041 230.823 170.041 236.073V236.126C170.041 241.376 166.104 245.974 160.323 245.974C154.541 245.974 150.657 241.43 150.657 236.181ZM167.814 236.181V236.126C167.814 231.802 164.665 228.266 160.323 228.266C155.98 228.266 152.884 231.747 152.884 236.073V236.126C152.884 240.451 156.033 243.988 160.377 243.988C164.722 243.988 167.814 240.506 167.814 236.181Z" fill="white"/>
<path d="M176.436 236.181V236.126C176.436 230.876 180.371 226.279 186.155 226.279C191.938 226.279 195.82 230.823 195.82 236.073V236.126C195.82 241.376 191.883 245.974 186.1 245.974C180.317 245.974 176.436 241.43 176.436 236.181ZM193.593 236.181V236.126C193.593 231.802 190.444 228.266 186.1 228.266C181.756 228.266 178.661 231.747 178.661 236.073V236.126C178.661 240.451 181.812 243.988 186.155 243.988C190.497 243.988 193.593 240.506 193.593 236.181Z" fill="white"/>
<path d="M203.056 226.607H211.228C213.562 226.607 215.434 227.314 216.629 228.512C217.553 229.436 218.097 230.77 218.097 232.265V232.32C218.097 235.475 215.925 237.325 212.94 237.867L218.776 245.646H216.143L210.633 238.248H205.202V245.646H203.058V226.605L203.056 226.607ZM211.037 236.317C213.888 236.317 215.923 234.848 215.923 232.402V232.347C215.923 230.007 214.131 228.594 211.064 228.594H205.199V236.317H211.037Z" fill="white"/>
<path d="M225.388 226.607H231.984C237.955 226.607 242.083 230.716 242.083 236.073V236.126C242.083 241.485 237.955 245.646 231.984 245.646H225.388V226.607ZM227.531 228.592V243.661H231.984C236.789 243.661 239.856 240.397 239.856 236.18V236.126C239.856 231.911 236.789 228.592 231.984 228.592H227.531Z" fill="white"/>
<path d="M249.511 226.607H251.656V245.648H249.511V226.607Z" fill="white"/>
<path d="M259.93 226.607H261.938L273.911 241.866V226.607H275.999V245.648H274.289L262.02 230.034V245.648H259.93V226.607Z" fill="white"/>
<path d="M291.11 226.47H293.119L301.778 245.646H299.47L297.243 240.614H286.901L284.647 245.646H282.449L291.11 226.47ZM296.404 238.656L292.087 228.973L287.745 238.656H296.404Z" fill="white"/>
<path d="M310.81 228.592H304.431V226.607H319.362V228.592H312.983V245.646H310.811V228.592H310.81Z" fill="white"/>
<path d="M326.274 226.607H328.418V245.648H326.274V226.607Z" fill="white"/>
<path d="M335.852 236.181V236.126C335.852 230.876 339.787 226.279 345.57 226.279C351.354 226.279 355.236 230.823 355.236 236.073V236.126C355.236 241.376 351.299 245.974 345.516 245.974C339.733 245.974 335.852 241.43 335.852 236.181ZM353.009 236.181V236.126C353.009 231.802 349.86 228.266 345.516 228.266C341.172 228.266 338.077 231.747 338.077 236.073V236.126C338.077 240.451 341.228 243.988 345.57 243.988C349.913 243.988 353.009 240.506 353.009 236.181Z" fill="white"/>
<path d="M362.472 226.607H364.48L376.452 241.866V226.607H378.541V245.648H376.831L364.562 230.034V245.648H362.472V226.607Z" fill="white"/>
<path d="M396.634 236.181V236.126C396.634 230.741 400.651 226.279 406.243 226.279C409.691 226.279 411.754 227.502 413.655 229.298L412.188 230.874C410.587 229.351 408.796 228.264 406.216 228.264C402.01 228.264 398.859 231.691 398.859 236.071V236.124C398.859 240.532 402.037 243.986 406.216 243.986C408.823 243.986 410.533 242.98 412.352 241.239L413.764 242.626C411.783 244.638 409.609 245.971 406.161 245.971C400.677 245.971 396.634 241.645 396.634 236.177V236.181Z" fill="white"/>
<path d="M420.215 226.607H433.952V228.566H422.358V235.067H432.73V237.026H422.358V243.69H434.087V245.65H420.215V226.609V226.607Z" fill="white"/>
<path d="M441.11 226.607H443.118L455.09 241.866V226.607H457.179V245.648H455.469L443.2 230.034V245.648H441.11V226.607Z" fill="white"/>
<path d="M470.282 228.592H463.902V226.607H478.834V228.592H472.455V245.646H470.283V228.592H470.282Z" fill="white"/>
<path d="M485.555 226.607H499.292V228.566H487.7V235.067H498.069V237.026H487.7V243.69H499.426V245.65H485.555V226.609V226.607Z" fill="white"/>
<path d="M506.449 226.607H514.621C516.955 226.607 518.827 227.314 520.022 228.512C520.946 229.436 521.49 230.77 521.49 232.265V232.32C521.49 235.475 519.318 237.325 516.333 237.867L522.169 245.646H519.536L514.026 238.248H508.596V245.646H506.451V226.605L506.449 226.607ZM514.432 236.317C517.282 236.317 519.318 234.848 519.318 232.402V232.347C519.318 230.007 517.526 228.594 514.459 228.594H508.594V236.317H514.432Z" fill="white"/>
</g>
<defs>
<clipPath id="clip0_5_373">
<rect width="650" height="246" fill="white"/>
</clipPath>
</defs>
</svg>
